<?xml version="1.0" encoding="UTF-8" standalone="no"?>
<!DOCTYPE svg PUBLIC "-//W3C//DTD SVG 1.1//EN" "http://www.w3.org/Graphics/SVG/1.1/DTD/svg11.dtd">
<!-- 由 Microsoft Visio, SVG Export 生成 hamaa-logo.svg Page-1 -->
<svg xmlns="http://www.w3.org/2000/svg" xmlns:xlink="http://www.w3.org/1999/xlink" xmlns:ev="http://www.w3.org/2001/xml-events"
		xmlns:v="http://schemas.microsoft.com/visio/2003/SVGExtensions/" width="8.04046in" height="2.9163in"
		viewBox="0 0 578.913 209.973" xml:space="preserve" color-interpolation-filters="sRGB" class="st3">
	<v:documentProperties v:langID="2052" v:metric="true" v:viewMarkup="false">
		<v:userDefs>
			<v:ud v:nameU="msvNoAutoConnect" v:val="VT0(1):26"/>
		</v:userDefs>
	</v:documentProperties>

	<style type="text/css">
	<![CDATA[
		.st1 {stroke:#00b050;stroke-linecap:round;stroke-linejoin:round;stroke-width:10}
		.st2 {stroke:#000000;stroke-linecap:round;stroke-linejoin:round;stroke-width:10}
		.st3 {fill:none;fill-rule:evenodd;font-size:12px;overflow:visible;stroke-linecap:square;stroke-miterlimit:3}
	]]>
	</style>

	<g v:mID="0" v:index="1" v:groupContext="foregroundPage">
		<title>页-1</title>
		<v:pageProperties v:drawingScale="0.0393701" v:pageScale="0.0393701" v:drawingUnits="24" v:shadowOffsetX="8.50394"
				v:shadowOffsetY="-8.50394"/>
		<g id="shape2-1" v:mID="2" v:groupContext="shape" transform="translate(-186.973,186.973) rotate(-90)">
			<title>工作表.2</title>
			<path d="M0 209.97 L81.99 209.97" class="st1"/>
		</g>
		<g id="shape3-4" v:mID="3" v:groupContext="shape" transform="translate(-104.987,186.973) rotate(-90)">
			<title>工作表.3</title>
			<path d="M0 209.97 L81.99 209.97" class="st1"/>
		</g>
		<g id="shape4-7" v:mID="4" v:groupContext="shape" transform="translate(23,-104.987)">
			<title>工作表.4</title>
			<path d="M0 209.97 L81.99 209.97" class="st1"/>
		</g>
		<g id="shape5-10" v:mID="5" v:groupContext="shape" transform="translate(23,-23)">
			<title>工作表.5</title>
			<path d="M0 209.97 L13.66 209.97" class="st1"/>
		</g>
		<g id="shape6-13" v:mID="6" v:groupContext="shape" transform="translate(91.3222,-23)">
			<title>工作表.6</title>
			<path d="M0 209.97 L13.66 209.97" class="st1"/>
		</g>
		<g id="shape7-16" v:mID="7" v:groupContext="shape" transform="translate(50.3289,-63.9933)">
			<title>工作表.7</title>
			<path d="M0 209.97 L27.33 209.97" class="st2"/>
		</g>
		<g id="shape8-19" v:mID="8" v:groupContext="shape" transform="translate(-125.474,-43.4869) rotate(-45)">
			<title>工作表.8</title>
			<path d="M0 209.97 L115.95 209.97" class="st1"/>
		</g>
		<g id="shape9-22" v:mID="9" v:groupContext="shape" transform="translate(104.987,-186.973)">
			<title>工作表.9</title>
			<path d="M0 209.97 L27.33 209.97" class="st1"/>
		</g>
		<g id="shape11-25" v:mID="11" v:groupContext="shape" transform="translate(159.644,-63.9933)">
			<title>工作表.11</title>
			<path d="M0 209.97 L27.33 209.97" class="st2"/>
		</g>
		<g id="shape20-28" v:mID="20" v:groupContext="shape" transform="translate(31.6578,186.973) rotate(-90)">
			<title>工作表.20</title>
			<path d="M0 209.97 L81.99 209.97" class="st1"/>
		</g>
		<g id="shape21-31" v:mID="21" v:groupContext="shape" transform="translate(241.631,-104.987)">
			<title>工作表.21</title>
			<path d="M0 209.97 L81.99 209.97" class="st1"/>
		</g>
		<g id="shape22-34" v:mID="22" v:groupContext="shape" transform="translate(533.591,104.987) rotate(90)">
			<title>工作表.22</title>
			<path d="M0 209.97 L81.99 209.97" class="st1"/>
		</g>
		<g id="shape23-37" v:mID="23" v:groupContext="shape" transform="translate(492.598,104.987) rotate(90)">
			<title>工作表.23</title>
			<path d="M0 209.97 L81.99 209.97" class="st1"/>
		</g>
		<g id="shape28-40" v:mID="28" v:groupContext="shape" transform="translate(23,-23)">
			<title>工作表.28</title>
			<v:textBlock v:margins="rect(4,4,4,4)" v:tabSpace="42.5197"/>
		</g>
		<g id="shape29-41" v:mID="29" v:groupContext="shape" transform="translate(132.316,-104.987)">
			<title>工作表.29</title>
			<path d="M0 209.97 L81.99 209.97" class="st1"/>
		</g>
		<g id="shape30-44" v:mID="30" v:groupContext="shape" transform="translate(342.289,104.987) rotate(90)">
			<title>工作表.30</title>
			<path d="M0 209.97 L81.99 209.97" class="st1"/>
		</g>
		<g id="shape31-47" v:mID="31" v:groupContext="shape" transform="translate(132.316,-23)">
			<title>工作表.31</title>
			<path d="M0 209.97 L95.65 209.97" class="st1"/>
		</g>
		<g id="shape32-50" v:mID="32" v:groupContext="shape" transform="translate(424.276,91.3222) rotate(90)">
			<title>工作表.32</title>
			<path d="M0 209.97 L95.65 209.97" class="st1"/>
		</g>
		<g id="shape34-53" v:mID="34" v:groupContext="shape" transform="translate(350.947,-104.987)">
			<title>工作表.34</title>
			<path d="M0 209.97 L81.99 209.97" class="st1"/>
		</g>
		<g id="shape35-56" v:mID="35" v:groupContext="shape" transform="translate(560.92,104.987) rotate(90)">
			<title>工作表.35</title>
			<path d="M0 209.97 L81.99 209.97" class="st1"/>
		</g>
		<g id="shape36-59" v:mID="36" v:groupContext="shape" transform="translate(350.947,-23)">
			<title>工作表.36</title>
			<path d="M0 209.97 L95.65 209.97" class="st1"/>
		</g>
		<g id="shape37-62" v:mID="37" v:groupContext="shape" transform="translate(642.907,91.3222) rotate(90)">
			<title>工作表.37</title>
			<path d="M0 209.97 L95.65 209.97" class="st1"/>
		</g>
		<g id="shape39-65" v:mID="39" v:groupContext="shape" transform="translate(460.262,-104.987)">
			<title>工作表.39</title>
			<path d="M0 209.97 L81.99 209.97" class="st1"/>
		</g>
		<g id="shape40-68" v:mID="40" v:groupContext="shape" transform="translate(670.236,104.987) rotate(90)">
			<title>工作表.40</title>
			<path d="M0 209.97 L81.99 209.97" class="st1"/>
		</g>
		<g id="shape41-71" v:mID="41" v:groupContext="shape" transform="translate(460.262,-23)">
			<title>工作表.41</title>
			<path d="M0 209.97 L95.65 209.97" class="st1"/>
		</g>
		<g id="shape42-74" v:mID="42" v:groupContext="shape" transform="translate(752.222,91.3222) rotate(90)">
			<title>工作表.42</title>
			<path d="M0 209.97 L95.65 209.97" class="st1"/>
		</g>
	</g>
</svg>
